<svg width="250" height="120" viewBox="0 0 250 120" xmlns="http://www.w3.org/2000/svg">
  <!-- Background -->
  <rect width="250" height="120" fill="#fff8e1" />
  
  <!-- Sun -->
  <g transform="translate(170, 30)">
    <!-- Sun Circle -->
    <circle cx="0" cy="0" r="20" fill="#ffc107" />
    
    <!-- Sun Rays -->
    <line x1="0" y1="-30" x2="0" y2="-25" stroke="#ffc107" stroke-width="3" stroke-linecap="round" />
    <line x1="0" y1="25" x2="0" y2="30" stroke="#ffc107" stroke-width="3" stroke-linecap="round" />
    <line x1="-30" y1="0" x2="-25" y2="0" stroke="#ffc107" stroke-width="3" stroke-linecap="round" />
    <line x1="25" y1="0" x2="30" y2="0" stroke="#ffc107" stroke-width="3" stroke-linecap="round" />
    
    <line x1="-21" y1="-21" x2="-17" y2="-17" stroke="#ffc107" stroke-width="3" stroke-linecap="round" />
    <line x1="-21" y1="21" x2="-17" y2="17" stroke="#ffc107" stroke-width="3" stroke-linecap="round" />
    <line x1="21" y1="-21" x2="17" y2="-17" stroke="#ffc107" stroke-width="3" stroke-linecap="round" />
    <line x1="21" y1="21" x2="17" y2="17" stroke="#ffc107" stroke-width="3" stroke-linecap="round" />
  </g>
  
  <!-- Succulent Plant -->
  <g transform="translate(60, 30)">
    <!-- Pot -->
    <path d="M 60 90 L 50 60 L 10 60 L 0 90 Z" fill="#e57373" />
    
    <!-- Succulent Leaves -->
    <path d="M 30 60 C 20 50, 10 30, 20 10" stroke="#66bb6a" stroke-width="5" fill="none" stroke-linecap="round" />
    <path d="M 30 60 C 40 50, 50 30, 40 10" stroke="#66bb6a" stroke-width="5" fill="none" stroke-linecap="round" />
    <path d="M 30 60 C 10 50, 0 40, 10 20" stroke="#66bb6a" stroke-width="5" fill="none" stroke-linecap="round" />
    <path d="M 30 60 C 50 50, 60 40, 50 20" stroke="#66bb6a" stroke-width="5" fill="none" stroke-linecap="round" />
    <path d="M 30 60 C 30 40, 30 30, 30 10" stroke="#66bb6a" stroke-width="5" fill="none" stroke-linecap="round" />
  </g>
  
  <!-- Light Beams -->
  <path d="M 140 30 L 120 50" stroke="#ffd54f" stroke-width="2" stroke-dasharray="3,3" />
  <path d="M 150 40 L 130 60" stroke="#ffd54f" stroke-width="2" stroke-dasharray="3,3" />
  <path d="M 160 50 L 140 70" stroke="#ffd54f" stroke-width="2" stroke-dasharray="3,3" />
</svg>