<svg width="250" height="120" viewBox="0 0 250 120" xmlns="http://www.w3.org/2000/svg">
  <!-- Background -->
  <rect width="250" height="120" fill="#e0f2f1" />
  
  <!-- Old Pot (Left) -->
  <g transform="translate(40, 40)">
    <!-- Pot -->
    <path d="M 40 80 L 35 50 L 5 50 L 0 80 Z" fill="#a1887f" />
    
    <!-- Soil -->
    <path d="M 5 50 L 35 50 L 35 55 C 35 55, 20 60, 5 55 Z" fill="#795548" />
    
    <!-- Plant Roots -->
    <path d="M 20 50 L 15 65" stroke="#8d6e63" stroke-width="2" />
    <path d="M 20 50 L 25 65" stroke="#8d6e63" stroke-width="2" />
    <path d="M 20 50 L 20 70" stroke="#8d6e63" stroke-width="2" />
    
    <!-- Plant -->
    <path d="M 20 50 L 20 30" stroke="#43a047" stroke-width="2" />
    <path d="M 20 40 C 15 35, 10 30, 15 25" stroke="#43a047" stroke-width="2" fill="none" />
    <path d="M 20 40 C 25 35, 30 30, 25 25" stroke="#43a047" stroke-width="2" fill="none" />
  </g>
  
  <!-- Arrow -->
  <g transform="translate(100, 60)">
    <path d="M 0 0 L 40 0" stroke="#546e7a" stroke-width="3" />
    <path d="M 30 -10 L 40 0 L 30 10" stroke="#546e7a" stroke-width="3" fill="none" />
  </g>
  
  <!-- New Pot (Right) -->
  <g transform="translate(160, 30)">
    <!-- Pot -->
    <path d="M 50 90 L 40 40 L 10 40 L 0 90 Z" fill="#26a69a" />
    
    <!-- Soil -->
    <path d="M 10 40 L 40 40 L 40 50 C 40 50, 25 60, 10 50 Z" fill="#795548" />
    
    <!-- Plant -->
    <path d="M 25 40 L 25 10" stroke="#43a047" stroke-width="3" />
    <path d="M 25 30 C 15 20, 10 10, 15 0" stroke="#43a047" stroke-width="3" fill="none" />
    <path d="M 25 30 C 35 20, 40 10, 35 0" stroke="#43a047" stroke-width="3" fill="none" />
    <path d="M 25 20 C 20 15, 15 5, 20 -5" stroke="#43a047" stroke-width="3" fill="none" />
    <path d="M 25 20 C 30 15, 35 5, 30 -5" stroke="#43a047" stroke-width="3" fill="none" />
  </g>
</svg>