<svg width="250" height="120" viewBox="0 0 250 120" xmlns="http://www.w3.org/2000/svg">
  <!-- Background -->
  <rect width="250" height="120" fill="#e8f5e9" />
  
  <!-- Watering Can -->
  <g transform="translate(70, 20)">
    <!-- Can Body -->
    <path d="M 60 80 L 80 30 L 100 30 L 120 80 Z" fill="#78909c" />
    
    <!-- Handle -->
    <path d="M 100 40 C 120 20, 140 30, 130 50" stroke="#78909c" stroke-width="8" fill="none" stroke-linecap="round" />
    
    <!-- Spout -->
    <path d="M 80 50 L 50 40 L 40 60" stroke="#78909c" stroke-width="8" fill="none" stroke-linecap="round" />
    
    <!-- Water Drops -->
    <circle cx="40" cy="70" r="5" fill="#2196f3" />
    <circle cx="30" cy="80" r="4" fill="#2196f3" />
    <circle cx="50" cy="85" r="6" fill="#2196f3" />
  </g>
  
  <!-- Plant -->
  <g transform="translate(30, 50)">
    <!-- Pot -->
    <path d="M 40 70 L 30 40 L 10 40 L 0 70 Z" fill="#d97941" />
    
    <!-- Stem -->
    <path d="M 20 40 L 20 20" stroke="#2e7d32" stroke-width="3" stroke-linecap="round" />
    
    <!-- Leaves -->
    <path d="M 20 30 C 10 25, 5 15, 15 10" stroke="#2e7d32" stroke-width="3" fill="none" stroke-linecap="round" />
    <path d="M 20 30 C 30 25, 35 15, 25 10" stroke="#2e7d32" stroke-width="3" fill="none" stroke-linecap="round" />
  </g>
</svg>